<?xml version="1.0" standalone="no"?>
<!DOCTYPE svg PUBLIC "-//W3C//DTD SVG 20010904//EN"
 "http://www.w3.org/TR/2001/REC-SVG-20010904/DTD/svg10.dtd">
<svg version="1.0" xmlns="http://www.w3.org/2000/svg"
 width="920.000000pt" height="920.000000pt" viewBox="0 0 920.000000 920.000000"
 preserveAspectRatio="xMidYMid meet">

<g transform="translate(0.000000,920.000000) scale(0.100000,-0.100000)"
fill="#000000" stroke="none">
<path d="M4380 8764 c-19 -2 -82 -9 -140 -15 -399 -43 -832 -182 -1185 -381
-1307 -739 -1915 -2267 -1473 -3703 97 -316 282 -680 479 -943 302 -402 666
-708 1114 -937 l110 -56 575 -575 c534 -533 580 -576 635 -599 43 -17 75 -23
115 -21 115 6 106 -2 740 631 322 322 591 585 598 585 20 0 269 137 377 207
672 439 1150 1111 1344 1891 63 252 91 490 91 767 0 829 -323 1617 -906 2210
-494 501 -1110 811 -1824 916 -128 19 -553 34 -650 23z m635 -603 c725 -126
1334 -519 1735 -1119 290 -434 433 -902 434 -1427 2 -421 -79 -773 -264 -1150
-340 -696 -982 -1205 -1736 -1379 -322 -74 -703 -86 -1019 -31 -1091 190
-1941 1046 -2119 2135 -74 454 -25 925 141 1350 336 859 1097 1476 1998 1619
183 29 183 29 460 26 198 -3 275 -7 370 -24z"/>
<path d="M3509 7316 c-87 -31 -139 -79 -178 -166 -19 -41 -21 -65 -21 -292 l0
-248 1290 0 1290 0 0 248 0 249 -31 61 c-32 65 -66 99 -133 135 l-41 22 -1070
2 c-858 2 -1077 0 -1106 -11z"/>
<path d="M3312 5063 c3 -611 -1 -569 75 -654 41 -45 88 -73 155 -89 l46 -12 4
-121 c5 -132 19 -177 73 -232 57 -56 101 -70 220 -70 123 0 148 9 210 70 60
61 68 87 73 228 l4 127 428 0 428 0 4 -127 c5 -141 13 -167 73 -228 62 -61 87
-70 210 -70 119 0 163 14 220 70 54 55 68 100 73 232 l4 121 46 12 c67 16 114
44 155 89 76 85 72 43 75 654 l3 547 -1291 0 -1291 0 3 -547z m634 -49 c126
-60 83 -264 -57 -266 -85 -2 -149 57 -149 137 0 106 110 175 206 129z m1442
-4 c128 -78 75 -265 -76 -262 -77 1 -132 60 -132 141 0 109 116 177 208 121z"/>
</g>
</svg>
